<?xml version="1.0" encoding="utf-8"?>
<!-- Generator: Adobe Illustrator 23.0.0, SVG Export Plug-In . SVG Version: 6.00 Build 0)  -->
<svg version="1.1" xmlns="http://www.w3.org/2000/svg" xmlns:xlink="http://www.w3.org/1999/xlink" x="0px" y="0px"
	 viewBox="0 0 512 483.4" style="enable-background:new 0 0 512 483.4;" xml:space="preserve">
<style type="text/css">
	.st0{display:none;}
	.st1{display:inline;}
	.st2{fill:#00F2A6;}
	.st3{fill:#01C0FA;}
	.st4{fill:#EE6161;}
	.st5{fill:#FEDF30;}
	.st6{fill:#FEAEE1;}
	.st7{fill:#F9F7F8;}
	.st8{fill:#99E6FC;}
	.st9{fill:#FFFFFF;}
	.st10{fill:none;}
</style>
<g id="Capa_1" class="st0">
	<g class="st1">
		<path class="st2" d="M150,174.3l-60.9-20.9C36.1,181.6,0,237.4,0,301.6c0,92.6,75.1,167.6,167.6,167.6c32.4,0,62.7-9.2,88.4-25.2
			l16.4-123.9L150,174.3z"/>
		<path class="st3" d="M424.4,154.3c0,0-142.3,89.3-142.9,90.9s-31.1,170.5-31.1,170.5l5.6,28.4c25.7,15.9,55.9,25.2,88.4,25.2
			c92.6,0,167.6-75.1,167.6-167.6C512,238,476.6,182.7,424.4,154.3L424.4,154.3z"/>
		<g id="XMLID_736_">
			<g>
				<path class="st4" d="M424.4,153.2c0-92.6-75.1-167.6-167.6-167.6S89.1,60.7,89.1,153.2v0.2c0.1,0,0.1-0.1,0.2-0.1l53.6,49.1
					L402.5,185l21.4-31.1c0.2,0.1,0.3,0.2,0.5,0.3C424.4,153.9,424.4,153.6,424.4,153.2z"/>
				<path class="st5" d="M167.6,134c-28.4,0-55.1,7-78.5,19.5c0.1,63.5,35.5,118.8,87.6,147.1l26.9-2.9l52.4-73.2v-65.4
					C230.3,143.2,200.1,134,167.6,134L167.6,134z"/>
				<path class="st6" d="M344.4,134c-32.4,0-62.7,9.2-88.4,25.2l-8.4,43.3l53.4,99h34.3c52.7-28,88.7-83.3,89.1-147.1
					C400.6,141.3,373.3,134,344.4,134L344.4,134z"/>
				<path class="st7" d="M335.3,301.4c-23.4,12.4-50.2,19.5-78.5,19.5c-29,0-56.2-7.4-80-20.3c0.4-59.7,31.9-112.1,79.3-141.5
					C303.5,188.7,335.2,241.3,335.3,301.4L335.3,301.4z"/>
				<path class="st8" d="M256.7,320.9c28.4,0,55.1-7,78.5-19.5v0.2c0,60.1-31.7,112.9-79.3,142.5c-47.6-29.6-79.3-82.3-79.3-142.5
					c0-0.3,0-0.7,0-1C200.5,313.5,227.8,320.9,256.7,320.9L256.7,320.9z"/>
			</g>
		</g>
	</g>
</g>
<g id="圖層_2" class="st0">
	<g class="st1">
		<circle class="st3" cx="280.8" cy="245.2" r="97.1"/>
		<circle class="st3" cx="344.4" cy="315.8" r="167.6"/>
		<circle class="st2" cx="167.6" cy="315.8" r="167.6"/>
		<path class="st9" d="M256.7-33.3v404c111.6,0,202-90.4,202-202S368.3-33.3,256.7-33.3z"/>
		<circle class="st4" cx="256" cy="167.6" r="167.6"/>
		<circle class="st9" cx="176.7" cy="315" r="141.5"/>
		<path class="st10" d="M213,279.1c11.3,0,20.5,9.6,20.5,21.5S224.3,322,213,322"/>
	</g>
</g>
<g id="圖層_2_拷貝">
	<path class="st10" d="M213,279.1c11.3,0,20.5,9.6,20.5,21.5S224.3,322,213,322"/>
	<path class="st3" d="M457.4,192C457.4,192,457.4,192,457.4,192c-2.5,22-8.6,42.9-17.6,62.1c0,0,0,0.1-0.1,0.1
		c-0.6,1.3-1.3,2.7-1.9,4c0,0.1-0.1,0.1-0.1,0.2c-0.7,1.3-1.3,2.6-2,3.9c0,0,0,0.1-0.1,0.1c-6.3,12-13.8,23.3-22.3,33.7
		c0,0-0.1,0.1-0.1,0.1c-0.9,1-1.7,2.1-2.6,3.1c-0.1,0.2-0.3,0.3-0.4,0.5c-0.8,1-1.6,1.9-2.5,2.8c-0.2,0.2-0.4,0.4-0.6,0.7
		c-0.8,0.9-1.6,1.8-2.4,2.7c-0.2,0.3-0.5,0.5-0.7,0.8c-0.8,0.9-1.6,1.7-2.4,2.5c-0.3,0.3-0.5,0.5-0.8,0.8c-0.8,0.8-1.6,1.6-2.4,2.4
		c-0.3,0.3-0.6,0.5-0.8,0.8c-0.8,0.8-1.6,1.6-2.5,2.4c-0.3,0.3-0.6,0.5-0.8,0.8c-0.8,0.8-1.7,1.6-2.6,2.3c-0.3,0.2-0.5,0.5-0.8,0.7
		c-0.9,0.8-1.8,1.6-2.7,2.3c-0.2,0.2-0.4,0.4-0.6,0.5c-1,0.8-1.9,1.6-2.9,2.5c0,0,0,0-0.1,0.1c-4.4,3.6-8.9,7-13.5,10.2
		c-0.3,0.2-0.7,0.5-1,0.7c-0.8,0.6-1.7,1.1-2.5,1.7c-0.5,0.3-0.9,0.6-1.4,0.9c-0.8,0.5-1.6,1-2.4,1.5c-0.5,0.3-1,0.7-1.6,1
		c-0.8,0.5-1.6,0.9-2.4,1.4c-0.6,0.3-1.1,0.7-1.7,1c-0.8,0.4-1.5,0.9-2.3,1.3c-0.6,0.3-1.2,0.7-1.8,1c-0.8,0.4-1.5,0.8-2.3,1.2
		c-0.6,0.3-1.2,0.7-1.9,1c-0.8,0.4-1.5,0.8-2.3,1.2c-0.6,0.3-1.3,0.7-2,1c-0.8,0.4-1.5,0.7-2.3,1.1c-0.7,0.3-1.4,0.6-2,0.9
		c-0.7,0.3-1.5,0.7-2.2,1c-0.7,0.3-1.4,0.6-2.1,0.9c-0.7,0.3-1.5,0.6-2.2,1c-0.7,0.3-1.5,0.6-2.2,0.9c-0.7,0.3-1.5,0.6-2.2,0.9
		c-0.8,0.3-1.6,0.6-2.4,0.9c-0.7,0.3-1.4,0.5-2,0.8c-1.2,0.4-2.3,0.8-3.5,1.2c-0.8,0.3-1.6,0.5-2.4,0.8c-1,0.3-2.1,0.7-3.1,1
		c-0.6,0.2-1.3,0.4-1.9,0.6c-0.9,0.3-1.8,0.5-2.7,0.8c-0.7,0.2-1.4,0.4-2.1,0.6c-0.2,0.1-0.5,0.1-0.7,0.2
		c-13,35.4-39.7,64.2-73.8,79.9c29.2,24.9,67.1,39.9,108.5,39.9c92.6,0,167.6-75.1,167.6-167.6C512,266.7,490.9,222.6,457.4,192z"/>
	<path class="st2" d="M309.6,363.6c-19.8,54.2-71.8,92.8-132.9,92.8c-78.1,0-141.5-63.3-141.5-141.5s63.3-141.5,141.5-141.5
		c9.8,0,19.4,1,28.7,2.9v-24c-12.2-2.8-24.8-4.3-37.8-4.3C75.1,148.2,0,223.2,0,315.8s75.1,167.6,167.6,167.6
		c78.4,0,144.2-53.8,162.6-126.6C323.5,359.5,316.6,361.7,309.6,363.6z"/>
	<path class="st4" d="M256,0C163.4,0,88.4,75.1,88.4,167.6c0,11.7,1.2,23.1,3.5,34.2c23.6-17.8,53-28.3,84.9-28.3
		c78.1,0,141.5,63.3,141.5,141.5c0,2.8-0.1,5.7-0.3,8.5c61.9-24.6,105.7-85.1,105.7-155.8C423.6,75.1,348.6,0,256,0z"/>
</g>
</svg>
